<svg xmlns="http://www.w3.org/2000/svg" xmlns:xlink="http://www.w3.org/1999/xlink" width="1249" height="907" viewBox="-50 -50 1249 907"><title>main</title><style type="text/css">
path, polyline, polygon {stroke-linejoin:round;}
path, polyline, polygon, line {stroke-linecap:round;}
rect, circle, ellipse, polyline, line, polygon, path {shape-rendering:crispEdges;}
</style>
<rect x="-50" y="-50" width="1249" height="907" fill="#FFFFFF" stroke="none"/><g xmlns="http://www.w3.org/2000/svg" c_spicecmd="TRAN`1u`1m`0`{AC`dec`10`1Hz`1Meg`{DC`0``0`0`{TF```"><g c_origin="550,400.5" c_para="package`NONE`BOM_Manufacturer Part`?`spicePre`.`" c_partid="part_import_frame_lib" c_shapetype="group"><g display="none"><text x="572.640625" y="-3" font-family="Arial" font-size="7pt" fill="#000080" text-anchor="start">NO</text></g><g display="none"><text x="572.6484375" y="-13.703125" font-family="Arial" font-size="7pt" fill="#000080" text-anchor="start">.</text></g><path d="M 206 10 L 206 0 M 206 796 L 206 806 M 402 10 L 402 0 M 402 796 L 402 806 M 598 10 L 598 0 M 598 796 L 598 806 M 794 10 L 794 0 M 794 796 L 794 806 M 990 10 L 990 0 M 990 796 L 990 806 M 10 206 L 0 206 M 1139 206 L 1149 206 M 10 402 L 0 402 M 1139 402 L 1149 402 M 10 598 L 0 598 M 1139 598 L 1149 598 M 10 794 L 0 794 M 1139 794 L 1149 794" stroke="#880000" stroke-width="1" fill="none"/><g c_partid="part_annotation" c_origin="1.5,108" c_shapetype="group"><text x="1.5" y="108" font-family="Verdana" font-size="7pt" fill="#880000" font-style="" text-anchor="start" type="comment" font-weight="">A</text></g><g c_partid="part_annotation" c_origin="1140.5,108" c_shapetype="group"><text x="1140.5" y="108" font-family="Verdana" font-size="7pt" fill="#880000" font-style="" text-anchor="start" type="comment" font-weight="">A</text></g><g c_partid="part_annotation" c_origin="1.5,304" c_shapetype="group"><text x="1.5" y="304" font-family="Verdana" font-size="7pt" fill="#880000" font-style="" text-anchor="start" type="comment" font-weight="">B</text></g><g c_partid="part_annotation" c_origin="1140.5,304" c_shapetype="group"><text x="1140.5" y="304" font-family="Verdana" font-size="7pt" fill="#880000" font-style="" text-anchor="start" type="comment" font-weight="">B</text></g><g c_partid="part_annotation" c_origin="1.5,500" c_shapetype="group"><text x="1.5" y="500" font-family="Verdana" font-size="7pt" fill="#880000" font-style="" text-anchor="start" type="comment" font-weight="">C</text></g><g c_partid="part_annotation" c_origin="1140.5,500" c_shapetype="group"><text x="1140.5" y="500" font-family="Verdana" font-size="7pt" fill="#880000" font-style="" text-anchor="start" type="comment" font-weight="">C</text></g><g c_partid="part_annotation" c_origin="1.5,696" c_shapetype="group"><text x="1.5" y="696" font-family="Verdana" font-size="7pt" fill="#880000" font-style="" text-anchor="start" type="comment" font-weight="">D</text></g><g c_partid="part_annotation" c_origin="1140.5,696" c_shapetype="group"><text x="1140.5" y="696" font-family="Verdana" font-size="7pt" fill="#880000" font-style="" text-anchor="start" type="comment" font-weight="">D</text></g><g c_partid="part_annotation" c_origin="108,8.5" c_shapetype="group"><text x="108" y="8.5" font-family="Verdana" font-size="7pt" fill="#880000" font-style="" text-anchor="start" type="comment" font-weight="">1</text></g><g c_partid="part_annotation" c_origin="108,804.5" c_shapetype="group"><text x="108" y="804.5" font-family="Verdana" font-size="7pt" fill="#880000" font-style="" text-anchor="start" type="comment" font-weight="">1</text></g><g c_partid="part_annotation" c_origin="304,8.5" c_shapetype="group"><text x="304" y="8.5" font-family="Verdana" font-size="7pt" fill="#880000" font-style="" text-anchor="start" type="comment" font-weight="">2</text></g><g c_partid="part_annotation" c_origin="304,804.5" c_shapetype="group"><text x="304" y="804.5" font-family="Verdana" font-size="7pt" fill="#880000" font-style="" text-anchor="start" type="comment" font-weight="">2</text></g><g c_partid="part_annotation" c_origin="500,8.5" c_shapetype="group"><text x="500" y="8.5" font-family="Verdana" font-size="7pt" fill="#880000" font-style="" text-anchor="start" type="comment" font-weight="">3</text></g><g c_partid="part_annotation" c_origin="500,804.5" c_shapetype="group"><text x="500" y="804.5" font-family="Verdana" font-size="7pt" fill="#880000" font-style="" text-anchor="start" type="comment" font-weight="">3</text></g><g c_partid="part_annotation" c_origin="696,8.5" c_shapetype="group"><text x="696" y="8.5" font-family="Verdana" font-size="7pt" fill="#880000" font-style="" text-anchor="start" type="comment" font-weight="">4</text></g><g c_partid="part_annotation" c_origin="696,804.5" c_shapetype="group"><text x="696" y="804.5" font-family="Verdana" font-size="7pt" fill="#880000" font-style="" text-anchor="start" type="comment" font-weight="">4</text></g><g c_partid="part_annotation" c_origin="892,8.5" c_shapetype="group"><text x="892" y="8.5" font-family="Verdana" font-size="7pt" fill="#880000" font-style="" text-anchor="start" type="comment" font-weight="">5</text></g><g c_partid="part_annotation" c_origin="892,804.5" c_shapetype="group"><text x="892" y="804.5" font-family="Verdana" font-size="7pt" fill="#880000" font-style="" text-anchor="start" type="comment" font-weight="">5</text></g><rect x="10" y="10" width="1129" height="786" stroke="#880000" stroke-width="1" fill="none"/><rect x="0" y="0" width="1149" height="806" stroke="#880000" stroke-width="1" fill="none"/><rect x="739" y="716" width="400" height="80" stroke="#880000" stroke-width="1" fill="none"/><polyline points="739 756 1139 756" stroke="#880000" stroke-width="1" fill="none" stroke-linecap="round"/><polyline points="739 776 1139 776" stroke="#880000" stroke-width="1" fill="none" stroke-linecap="round"/><polyline points="1059 716 1059 756" stroke="#880000" stroke-width="1" fill="none" stroke-linecap="round"/><polyline points="1019 756 1019 776" stroke="#880000" stroke-width="1" fill="none" stroke-linecap="round"/><polyline points="934 776 934 796" stroke="#880000" stroke-width="1" fill="none" stroke-linecap="round"/><g c_partid="part_annotation" c_origin="744,728" c_shapetype="group"><text x="744" y="728" font-family="Verdana" font-size="8pt" fill="#880000" font-style="" text-anchor="start" type="comment" font-weight="">TITLE:</text></g><g c_partid="part_annotation" c_origin="749,746" c_shapetype="group"><text x="749" y="746" font-family="Verdana" font-size="10pt" fill="#0000FF" font-style="" text-anchor="start" type="comment" font-weight="">New Schematic</text></g><g c_partid="part_annotation" c_origin="1065,742" c_shapetype="group"><text x="1065" y="742" font-family="Verdana" font-size="8pt" fill="#880000" font-style="" text-anchor="start" type="comment" font-weight="">REV:</text></g><g c_partid="part_annotation" c_origin="1096,743" c_shapetype="group"><text x="1096" y="743" font-family="Verdana" font-size="9pt" fill="#0000FF" font-style="" text-anchor="start" type="comment" font-weight="">1.0</text></g><g c_partid="part_annotation" c_origin="744,771" c_shapetype="group"><text x="744" y="771" font-family="Verdana" font-size="8pt" fill="#880000" font-style="" text-anchor="start" type="comment" font-weight="">Date:</text></g><g c_partid="part_annotation" c_origin="794,771" c_shapetype="group"><text x="794" y="771" font-family="Verdana" font-size="9pt" fill="#0000FF" font-style="" text-anchor="start" type="comment" font-weight="">2017-01-31</text></g><g c_partid="part_annotation" c_origin="1024,771" c_shapetype="group"><text x="1024" y="771" font-family="Verdana" font-size="8pt" fill="#880000" font-style="" text-anchor="start" type="comment" font-weight="">Sheet:</text></g><g c_partid="part_annotation" c_origin="1069,771" c_shapetype="group"><text x="1069" y="771" font-family="Verdana" font-size="9pt" fill="#0000FF" font-style="" text-anchor="start" type="comment" font-weight="">1/1</text></g><g c_partid="part_annotation" c_origin="744,791" c_shapetype="group"><text x="744" y="791" font-family="Verdana" font-size="8pt" fill="#880000" font-style="" text-anchor="start" type="comment" font-weight="">EasyEDA V4.1.3</text></g><g c_partid="part_annotation" c_origin="944,791" c_shapetype="group"><text x="944" y="791" font-family="Verdana" font-size="8pt" fill="#880000" font-style="" text-anchor="start" type="comment" font-weight="">Drawn By:</text></g><g c_partid="part_annotation" c_origin="1009,791" c_shapetype="group"><text x="1009" y="791" font-family="Verdana" font-size="9pt" fill="#0000FF" font-style="" text-anchor="start" type="comment" font-weight="">Your Name</text></g></g><g eelibtitle="Header-Female-2.54_1x2" c_origin="260,470" c_para="package`HDR-1X2/2.54`BOM_EasyEDA`E49661`BOM_Supplier`EasyEDA`BOM_Manufacturer`EasyEDA`BOM_Manufacturer Part`Header-Female-2.54_1x2`spicePre`P`" c_partid="part_import_360404" c_rotation="180" c_shapetype="group" package-default="HDR-1X2/2.54"><g xmlns="http://www.w3.org/2000/svg" c_partid="part_annotation"><text x="245.296875" y="461" font-family="Arial" font-size="7pt" fill="#000080" text-anchor="start">+5V</text></g><g xmlns="http://www.w3.org/2000/svg" c_partid="part_annotation"><text x="245.296875" y="452" font-family="Arial" font-size="7pt" fill="#000080" text-anchor="start">PWR</text></g><rect x="230" y="465" width="20" height="20" stroke="#880000" stroke-width="1" fill="#EFEFEF"/><g c_partid="part_pin" c_etype="pinpart" c_show="show" c_elec="1" c_spicepin="1" c_origin="270,480"><path d="M 270 480 h -20" fill="none" stroke="#000000" stroke-width="1"/><text x="245" y="483" font-family="Verdana" font-size="7pt" fill="#000000" text-anchor="end">+5V</text><text x="255" y="479" font-family="Verdana" font-size="7pt" fill="#000000" text-anchor="start" display="none">1</text><circle cx="253" cy="480" r="3" stroke="#000000" fill="none" stroke-width="1" display="none"/><path d="M 250 477 L 247 480 L 250 483" fill="none" stroke="#000000" stroke-width="1" display="none"/></g><g c_partid="part_pin" c_etype="pinpart" c_show="show" c_elec="1" c_spicepin="2" c_origin="270,470"><path d="M 270 470 h -20" fill="none" stroke="#000000" stroke-width="1"/><text x="245" y="473" font-family="Verdana" font-size="7pt" fill="#000000" text-anchor="end">GND</text><text x="255" y="469" font-family="Verdana" font-size="7pt" fill="#000000" text-anchor="start" display="none">2</text><circle cx="253" cy="470" r="3" stroke="#000000" fill="none" stroke-width="1" display="none"/><path d="M 250 467 L 247 470 L 250 473" fill="none" stroke="#000000" stroke-width="1" display="none"/></g></g><g c_origin="460,380" c_para="package`My NodeMCU`nameAlias`Model`catid`20`spicePre`X`Contributor`canda410`timeStamp`1458805415`sourceId`OGtr1ZXUS`BOM_Manufacturer Part`?`spiceSymbolName`NodeMCU_V1_ESP12E`" c_partid="part_import_601853" c_shapetype="group" c_etype="pinpart"><g xmlns="http://www.w3.org/2000/svg" c_partid="part_annotation"><text x="454.046875" y="187" font-family="Arial" font-size="7pt" fill="#000080" text-anchor="start">NodeMCU_V1_ESP12E</text></g><g xmlns="http://www.w3.org/2000/svg" c_partid="part_annotation"><text x="454.046875" y="178" font-family="Arial" font-size="7pt" fill="#000080" text-anchor="start">U1</text></g><g c_partid="part_pin" c_etype="pinpart" c_show="show" c_elec="0" c_spicepin="1" c_origin="540,490"><path d="M 540 490 h -20" fill="none" stroke="#880000" stroke-width="1"/><text x="518" y="493" font-family="Verdana" font-size="7pt" fill="#0000FF" text-anchor="end">3.3V</text><text x="525" y="489" font-family="Verdana" font-size="7pt" fill="#0000FF" text-anchor="start">1</text><circle cx="523" cy="490" r="3" stroke="#880000" fill="none" stroke-width="1" display="none"/><path d="M 520 487 L 517 490 L 520 493" fill="none" stroke="#880000" stroke-width="1" display="none"/></g><g c_partid="part_pin" c_etype="pinpart" c_show="show" c_elec="0" c_spicepin="2" c_origin="540,470"><path d="M 540 470 h -20" fill="none" stroke="#880000" stroke-width="1"/><text x="518" y="473" font-family="Verdana" font-size="7pt" fill="#0000FF" text-anchor="end">GND</text><text x="525" y="469" font-family="Verdana" font-size="7pt" fill="#0000FF" text-anchor="start">2</text><circle cx="523" cy="470" r="3" stroke="#880000" fill="none" stroke-width="1" display="none"/><path d="M 520 467 L 517 470 L 520 473" fill="none" stroke="#880000" stroke-width="1" display="none"/></g><g c_partid="part_pin" c_etype="pinpart" c_show="show" c_elec="0" c_spicepin="3" c_origin="540,450"><path d="M 540 450 h -20" fill="none" stroke="#880000" stroke-width="1"/><text x="518" y="453" font-family="Verdana" font-size="7pt" fill="#0000FF" text-anchor="end">TX</text><text x="525" y="449" font-family="Verdana" font-size="7pt" fill="#0000FF" text-anchor="start">3</text><circle cx="523" cy="450" r="3" stroke="#880000" fill="none" stroke-width="1" display="none"/><path d="M 520 447 L 517 450 L 520 453" fill="none" stroke="#880000" stroke-width="1" display="none"/></g><g c_partid="part_pin" c_etype="pinpart" c_show="show" c_elec="0" c_spicepin="4" c_origin="540,430"><path d="M 540 430 h -20" fill="none" stroke="#880000" stroke-width="1"/><text x="518" y="433" font-family="Verdana" font-size="7pt" fill="#0000FF" text-anchor="end">RX</text><text x="525" y="429" font-family="Verdana" font-size="7pt" fill="#0000FF" text-anchor="start">4</text><circle cx="523" cy="430" r="3" stroke="#880000" fill="none" stroke-width="1" display="none"/><path d="M 520 427 L 517 430 L 520 433" fill="none" stroke="#880000" stroke-width="1" display="none"/></g><g c_partid="part_pin" c_etype="pinpart" c_show="show" c_elec="0" c_spicepin="5" c_origin="540,410"><path d="M 540 410 h -20" fill="none" stroke="#880000" stroke-width="1"/><text x="518" y="413" font-family="Verdana" font-size="7pt" fill="#0000FF" text-anchor="end">D8</text><text x="525" y="409" font-family="Verdana" font-size="7pt" fill="#0000FF" text-anchor="start">5</text><circle cx="523" cy="410" r="3" stroke="#880000" fill="none" stroke-width="1" display="none"/><path d="M 520 407 L 517 410 L 520 413" fill="none" stroke="#880000" stroke-width="1" display="none"/></g><g c_partid="part_pin" c_etype="pinpart" c_show="show" c_elec="0" c_spicepin="6" c_origin="540,390"><path d="M 540 390 h -20" fill="none" stroke="#880000" stroke-width="1"/><text x="518" y="393" font-family="Verdana" font-size="7pt" fill="#0000FF" text-anchor="end">D7</text><text x="525" y="389" font-family="Verdana" font-size="7pt" fill="#0000FF" text-anchor="start">6</text><circle cx="523" cy="390" r="3" stroke="#880000" fill="none" stroke-width="1" display="none"/><path d="M 520 387 L 517 390 L 520 393" fill="none" stroke="#880000" stroke-width="1" display="none"/></g><g c_partid="part_pin" c_etype="pinpart" c_show="show" c_elec="0" c_spicepin="7" c_origin="540,370"><path d="M 540 370 h -20" fill="none" stroke="#880000" stroke-width="1"/><text x="518" y="373" font-family="Verdana" font-size="7pt" fill="#0000FF" text-anchor="end">D6</text><text x="525" y="369" font-family="Verdana" font-size="7pt" fill="#0000FF" text-anchor="start">7</text><circle cx="523" cy="370" r="3" stroke="#880000" fill="none" stroke-width="1" display="none"/><path d="M 520 367 L 517 370 L 520 373" fill="none" stroke="#880000" stroke-width="1" display="none"/></g><g c_partid="part_pin" c_etype="pinpart" c_show="show" c_elec="0" c_spicepin="8" c_origin="540,350"><path d="M 540 350 h -20" fill="none" stroke="#880000" stroke-width="1"/><text x="518" y="353" font-family="Verdana" font-size="7pt" fill="#0000FF" text-anchor="end">D5</text><text x="525" y="349" font-family="Verdana" font-size="7pt" fill="#0000FF" text-anchor="start">8</text><circle cx="523" cy="350" r="3" stroke="#880000" fill="none" stroke-width="1" display="none"/><path d="M 520 347 L 517 350 L 520 353" fill="none" stroke="#880000" stroke-width="1" display="none"/></g><g c_partid="part_pin" c_etype="pinpart" c_show="show" c_elec="0" c_spicepin="9" c_origin="540,330"><path d="M 540 330 h -20" fill="none" stroke="#880000" stroke-width="1"/><text x="518" y="333" font-family="Verdana" font-size="7pt" fill="#0000FF" text-anchor="end">GND</text><text x="525" y="329" font-family="Verdana" font-size="7pt" fill="#0000FF" text-anchor="start">9</text><circle cx="523" cy="330" r="3" stroke="#880000" fill="none" stroke-width="1" display="none"/><path d="M 520 327 L 517 330 L 520 333" fill="none" stroke="#880000" stroke-width="1" display="none"/></g><g c_partid="part_pin" c_etype="pinpart" c_show="show" c_elec="0" c_spicepin="10" c_origin="540,310"><path d="M 540 310 h -20" fill="none" stroke="#880000" stroke-width="1"/><text x="518" y="313" font-family="Verdana" font-size="7pt" fill="#0000FF" text-anchor="end">3.3V</text><text x="525" y="309" font-family="Verdana" font-size="7pt" fill="#0000FF" text-anchor="start">10</text><circle cx="523" cy="310" r="3" stroke="#880000" fill="none" stroke-width="1" display="none"/><path d="M 520 307 L 517 310 L 520 313" fill="none" stroke="#880000" stroke-width="1" display="none"/></g><g c_partid="part_pin" c_etype="pinpart" c_show="show" c_elec="0" c_spicepin="11" c_origin="540,290"><path d="M 540 290 h -20" fill="none" stroke="#880000" stroke-width="1"/><text x="518" y="293" font-family="Verdana" font-size="7pt" fill="#0000FF" text-anchor="end">D4</text><text x="525" y="289" font-family="Verdana" font-size="7pt" fill="#0000FF" text-anchor="start">11</text><circle cx="523" cy="290" r="3" stroke="#880000" fill="none" stroke-width="1" display="none"/><path d="M 520 287 L 517 290 L 520 293" fill="none" stroke="#880000" stroke-width="1" display="none"/></g><g c_partid="part_pin" c_etype="pinpart" c_show="show" c_elec="0" c_spicepin="12" c_origin="540,270"><path d="M 540 270 h -20" fill="none" stroke="#880000" stroke-width="1"/><text x="518" y="273" font-family="Verdana" font-size="7pt" fill="#0000FF" text-anchor="end">D3</text><text x="525" y="269" font-family="Verdana" font-size="7pt" fill="#0000FF" text-anchor="start">12</text><circle cx="523" cy="270" r="3" stroke="#880000" fill="none" stroke-width="1" display="none"/><path d="M 520 267 L 517 270 L 520 273" fill="none" stroke="#880000" stroke-width="1" display="none"/></g><g c_partid="part_pin" c_etype="pinpart" c_show="show" c_elec="0" c_spicepin="13" c_origin="540,250"><path d="M 540 250 h -20" fill="none" stroke="#880000" stroke-width="1"/><text x="518" y="253" font-family="Verdana" font-size="7pt" fill="#0000FF" text-anchor="end">D2</text><text x="525" y="249" font-family="Verdana" font-size="7pt" fill="#0000FF" text-anchor="start">13</text><circle cx="523" cy="250" r="3" stroke="#880000" fill="none" stroke-width="1" display="none"/><path d="M 520 247 L 517 250 L 520 253" fill="none" stroke="#880000" stroke-width="1" display="none"/></g><g c_partid="part_pin" c_etype="pinpart" c_show="show" c_elec="0" c_spicepin="14" c_origin="540,230"><path d="M 540 230 h -20" fill="none" stroke="#880000" stroke-width="1"/><text x="518" y="233" font-family="Verdana" font-size="7pt" fill="#0000FF" text-anchor="end">D1</text><text x="525" y="229" font-family="Verdana" font-size="7pt" fill="#0000FF" text-anchor="start">14</text><circle cx="523" cy="230" r="3" stroke="#880000" fill="none" stroke-width="1" display="none"/><path d="M 520 227 L 517 230 L 520 233" fill="none" stroke="#880000" stroke-width="1" display="none"/></g><g c_partid="part_pin" c_etype="pinpart" c_show="show" c_elec="0" c_spicepin="15" c_origin="540,210"><path d="M 540 210 h -20" fill="none" stroke="#880000" stroke-width="1"/><text x="518" y="213" font-family="Verdana" font-size="7pt" fill="#0000FF" text-anchor="end">D0</text><text x="525" y="209" font-family="Verdana" font-size="7pt" fill="#0000FF" text-anchor="start">15</text><circle cx="523" cy="210" r="3" stroke="#880000" fill="none" stroke-width="1" display="none"/><path d="M 520 207 L 517 210 L 520 213" fill="none" stroke="#880000" stroke-width="1" display="none"/></g><g c_partid="part_pin" c_etype="pinpart" c_show="show" c_elec="0" c_spicepin="16" c_origin="380,210"><path d="M 380 210 h 20" fill="none" stroke="#880000" stroke-width="1"/><text x="402" y="213" font-family="Verdana" font-size="7pt" fill="#0000FF" text-anchor="start">A0</text><text x="395" y="209" font-family="Verdana" font-size="7pt" fill="#0000FF" text-anchor="end">16</text><circle cx="397" cy="210" r="3" stroke="#880000" fill="none" stroke-width="1" display="none"/><path d="M 400 213 L 403 210 L 400 207" fill="none" stroke="#880000" stroke-width="1" display="none"/></g><g c_partid="part_pin" c_etype="pinpart" c_show="show" c_elec="0" c_spicepin="17" c_origin="380,230"><path d="M 380 230 h 20" fill="none" stroke="#880000" stroke-width="1"/><text x="402" y="233" font-family="Verdana" font-size="7pt" fill="#0000FF" text-anchor="start">RSV(Don't Use)</text><text x="395" y="229" font-family="Verdana" font-size="7pt" fill="#0000FF" text-anchor="end">17</text><circle cx="397" cy="230" r="3" stroke="#880000" fill="none" stroke-width="1" display="none"/><path d="M 400 233 L 403 230 L 400 227" fill="none" stroke="#880000" stroke-width="1" display="none"/></g><g c_partid="part_pin" c_etype="pinpart" c_show="show" c_elec="0" c_spicepin="18" c_origin="380,250"><path d="M 380 250 h 20" fill="none" stroke="#880000" stroke-width="1"/><text x="402" y="253" font-family="Verdana" font-size="7pt" fill="#0000FF" text-anchor="start">RSV(Don't Use)</text><text x="395" y="249" font-family="Verdana" font-size="7pt" fill="#0000FF" text-anchor="end">18</text><circle cx="397" cy="250" r="3" stroke="#880000" fill="none" stroke-width="1" display="none"/><path d="M 400 253 L 403 250 L 400 247" fill="none" stroke="#880000" stroke-width="1" display="none"/></g><g c_partid="part_pin" c_etype="pinpart" c_show="show" c_elec="0" c_spicepin="19" c_origin="380,270"><path d="M 380 270 h 20" fill="none" stroke="#880000" stroke-width="1"/><text x="402" y="273" font-family="Verdana" font-size="7pt" fill="#0000FF" text-anchor="start">SD3</text><text x="395" y="269" font-family="Verdana" font-size="7pt" fill="#0000FF" text-anchor="end">19</text><circle cx="397" cy="270" r="3" stroke="#880000" fill="none" stroke-width="1" display="none"/><path d="M 400 273 L 403 270 L 400 267" fill="none" stroke="#880000" stroke-width="1" display="none"/></g><g c_partid="part_pin" c_etype="pinpart" c_show="show" c_elec="0" c_spicepin="20" c_origin="380,290"><path d="M 380 290 h 20" fill="none" stroke="#880000" stroke-width="1"/><text x="402" y="293" font-family="Verdana" font-size="7pt" fill="#0000FF" text-anchor="start">SD2</text><text x="395" y="289" font-family="Verdana" font-size="7pt" fill="#0000FF" text-anchor="end">20</text><circle cx="397" cy="290" r="3" stroke="#880000" fill="none" stroke-width="1" display="none"/><path d="M 400 293 L 403 290 L 400 287" fill="none" stroke="#880000" stroke-width="1" display="none"/></g><g c_partid="part_pin" c_etype="pinpart" c_show="show" c_elec="0" c_spicepin="21" c_origin="380,310"><path d="M 380 310 h 20" fill="none" stroke="#880000" stroke-width="1"/><text x="402" y="313" font-family="Verdana" font-size="7pt" fill="#0000FF" text-anchor="start">SD1</text><text x="395" y="309" font-family="Verdana" font-size="7pt" fill="#0000FF" text-anchor="end">21</text><circle cx="397" cy="310" r="3" stroke="#880000" fill="none" stroke-width="1" display="none"/><path d="M 400 313 L 403 310 L 400 307" fill="none" stroke="#880000" stroke-width="1" display="none"/></g><g c_partid="part_pin" c_etype="pinpart" c_show="show" c_elec="0" c_spicepin="22" c_origin="380,330"><path d="M 380 330 h 20" fill="none" stroke="#880000" stroke-width="1"/><text x="402" y="333" font-family="Verdana" font-size="7pt" fill="#0000FF" text-anchor="start">CMD</text><text x="395" y="329" font-family="Verdana" font-size="7pt" fill="#0000FF" text-anchor="end">22</text><circle cx="397" cy="330" r="3" stroke="#880000" fill="none" stroke-width="1" display="none"/><path d="M 400 333 L 403 330 L 400 327" fill="none" stroke="#880000" stroke-width="1" display="none"/></g><g c_partid="part_pin" c_etype="pinpart" c_show="show" c_elec="0" c_spicepin="23" c_origin="380,350"><path d="M 380 350 h 20" fill="none" stroke="#880000" stroke-width="1"/><text x="402" y="353" font-family="Verdana" font-size="7pt" fill="#0000FF" text-anchor="start">SD0</text><text x="395" y="349" font-family="Verdana" font-size="7pt" fill="#0000FF" text-anchor="end">23</text><circle cx="397" cy="350" r="3" stroke="#880000" fill="none" stroke-width="1" display="none"/><path d="M 400 353 L 403 350 L 400 347" fill="none" stroke="#880000" stroke-width="1" display="none"/></g><g c_partid="part_pin" c_etype="pinpart" c_show="show" c_elec="0" c_spicepin="24" c_origin="380,370"><path d="M 380 370 h 20" fill="none" stroke="#880000" stroke-width="1"/><text x="402" y="373" font-family="Verdana" font-size="7pt" fill="#0000FF" text-anchor="start">CLK</text><text x="395" y="369" font-family="Verdana" font-size="7pt" fill="#0000FF" text-anchor="end">24</text><circle cx="397" cy="370" r="3" stroke="#880000" fill="none" stroke-width="1" display="none"/><path d="M 400 373 L 403 370 L 400 367" fill="none" stroke="#880000" stroke-width="1" display="none"/></g><g c_partid="part_pin" c_etype="pinpart" c_show="show" c_elec="0" c_spicepin="25" c_origin="380,390"><path d="M 380 390 h 20" fill="none" stroke="#880000" stroke-width="1"/><text x="402" y="393" font-family="Verdana" font-size="7pt" fill="#0000FF" text-anchor="start">GND</text><text x="395" y="389" font-family="Verdana" font-size="7pt" fill="#0000FF" text-anchor="end">25</text><circle cx="397" cy="390" r="3" stroke="#880000" fill="none" stroke-width="1" display="none"/><path d="M 400 393 L 403 390 L 400 387" fill="none" stroke="#880000" stroke-width="1" display="none"/></g><g c_partid="part_pin" c_etype="pinpart" c_show="show" c_elec="0" c_spicepin="26" c_origin="380,410"><path d="M 380 410 h 20" fill="none" stroke="#880000" stroke-width="1"/><text x="402" y="413" font-family="Verdana" font-size="7pt" fill="#0000FF" text-anchor="start">3.3V</text><text x="395" y="409" font-family="Verdana" font-size="7pt" fill="#0000FF" text-anchor="end">26</text><circle cx="397" cy="410" r="3" stroke="#880000" fill="none" stroke-width="1" display="none"/><path d="M 400 413 L 403 410 L 400 407" fill="none" stroke="#880000" stroke-width="1" display="none"/></g><g c_partid="part_pin" c_etype="pinpart" c_show="show" c_elec="0" c_spicepin="27" c_origin="380,430"><path d="M 380 430 h 20" fill="none" stroke="#880000" stroke-width="1"/><text x="402" y="433" font-family="Verdana" font-size="7pt" fill="#0000FF" text-anchor="start">EN</text><text x="395" y="429" font-family="Verdana" font-size="7pt" fill="#0000FF" text-anchor="end">27</text><circle cx="397" cy="430" r="3" stroke="#880000" fill="none" stroke-width="1" display="none"/><path d="M 400 433 L 403 430 L 400 427" fill="none" stroke="#880000" stroke-width="1" display="none"/></g><g c_partid="part_pin" c_etype="pinpart" c_show="show" c_elec="0" c_spicepin="28" c_origin="380,450"><path d="M 380 450 h 20" fill="none" stroke="#880000" stroke-width="1"/><text x="402" y="453" font-family="Verdana" font-size="7pt" fill="#0000FF" text-anchor="start">RST</text><text x="395" y="449" font-family="Verdana" font-size="7pt" fill="#0000FF" text-anchor="end">28</text><circle cx="397" cy="450" r="3" stroke="#880000" fill="none" stroke-width="1" display="none"/><path d="M 400 453 L 403 450 L 400 447" fill="none" stroke="#880000" stroke-width="1" display="none"/></g><g c_partid="part_pin" c_etype="pinpart" c_show="show" c_elec="0" c_spicepin="29" c_origin="380,470"><path d="M 380 470 h 20" fill="none" stroke="#880000" stroke-width="1"/><text x="402" y="473" font-family="Verdana" font-size="7pt" fill="#0000FF" text-anchor="start">GND</text><text x="395" y="469" font-family="Verdana" font-size="7pt" fill="#0000FF" text-anchor="end">29</text><circle cx="397" cy="470" r="3" stroke="#880000" fill="none" stroke-width="1" display="none"/><path d="M 400 473 L 403 470 L 400 467" fill="none" stroke="#880000" stroke-width="1" display="none"/></g><g c_partid="part_pin" c_etype="pinpart" c_show="show" c_elec="0" c_spicepin="30" c_origin="380,490"><path d="M 380 490 h 20" fill="none" stroke="#880000" stroke-width="1"/><text x="402" y="493" font-family="Verdana" font-size="7pt" fill="#0000FF" text-anchor="start">Vin</text><text x="395" y="489" font-family="Verdana" font-size="7pt" fill="#0000FF" text-anchor="end">30</text><circle cx="397" cy="490" r="3" stroke="#880000" fill="none" stroke-width="1" display="none"/><path d="M 400 493 L 403 490 L 400 487" fill="none" stroke="#880000" stroke-width="1" display="none"/></g><rect x="400" y="190" width="120" height="360" stroke="#000000" stroke-width="1" fill="none"/><g c_partid="part_annotation" c_origin="460.92,204.5" c_etype="pinpart"><text x="431.84" y="209" font-family="Verdana" font-size="9pt" fill="#0000FF" font-style="" type="comment" font-weight="">NodeMCU</text></g><rect x="430" y="500" width="60" height="50" stroke="#000000" stroke-width="1" fill="none"/><rect x="440" y="500" width="40" height="30" stroke="#000000" stroke-width="1" fill="none"/></g><polyline points="270 470 380 470" stroke="#008800" stroke-width="1" fill="none" c_shapetype="line"/><polyline points="380 490 300 490 300 480 270 480" stroke="#008800" stroke-width="1" fill="none" c_shapetype="line"/><polyline points="340 510 340 470" stroke="#008800" stroke-width="1" fill="none" c_shapetype="line"/><g c_partid="part_junction" c_etype="pinpart" c_origin="340,470"><circle cx="340" cy="470" r="2.5" fill="#CC0000" stroke-width="1"/></g><g c_partid="part_netLabel_gnD" c_etype="pinpart" c_origin="340,510"><text x="329" y="497" font-family="Times New Roman" font-size="9pt" fill="#000080" text-anchor="start" display="none">GND</text><polyline points="340 520 340 510" stroke="#000000" stroke-width="1" fill="none"/><polyline points="330 520 349 520" stroke="#000000" stroke-width="1" fill="none"/><polyline points="334 522 347 522" stroke="#000000" stroke-width="1" fill="none"/><polyline points="336 524 343 524" stroke="#000000" stroke-width="1" fill="none"/><polyline points="339 526 341 526" stroke="#000000" stroke-width="1" fill="none"/></g><g c_partid="part_netLabel_VCC" c_etype="pinpart" c_origin="300,440"><text x="290" y="428" font-family="Times New Roman" font-size="9pt" fill="#000080" text-anchor="start">VCC</text><polyline points="300 430 300 440" stroke="#0000ff" stroke-width="1" fill="none"/><polyline points="295 430 305 430" stroke="#0000ff" stroke-width="1" fill="none"/></g><polyline points="300 440 300 480" stroke="#008800" stroke-width="1" fill="none" c_shapetype="line"/><g c_partid="part_junction" c_etype="pinpart" c_origin="300,480"><circle cx="300" cy="480" r="2.5" fill="#CC0000" stroke-width="1"/></g><g c_origin="680,350" c_para="package`SNR4-2.54-15.5X12.0X5.5MM`catid`20`description`DIP Tem-Hum Sensor`BOM_Supplier`SeeedStudio`BOM_SeeedStudio`314010000`BOM_Manufacturer Part`DHT11`spicePre`U`" c_partid="part_import_238020" c_rotation="180" c_shapetype="group"><g xmlns="http://www.w3.org/2000/svg" c_partid="part_annotation"><text x="665.546875" y="331" font-family="Arial" font-size="7pt" fill="#000080" text-anchor="start">DHT11</text></g><g xmlns="http://www.w3.org/2000/svg" c_partid="part_annotation"><text x="665.546875" y="322" font-family="Arial" font-size="7pt" fill="#000080" text-anchor="start">U2</text></g><polyline points="695 375 665 375" stroke="#8D2323" stroke-width="1" fill="none" stroke-linecap="round"/><polyline points="665 375 665 370" stroke="#8D2323" stroke-width="1" fill="none" stroke-linecap="round"/><polyline points="665 370 665 360" stroke="#8D2323" stroke-width="1" fill="none" stroke-linecap="round"/><polyline points="665 360 665 350" stroke="#8D2323" stroke-width="1" fill="none" stroke-linecap="round"/><polyline points="665 350 665 340" stroke="#8D2323" stroke-width="1" fill="none" stroke-linecap="round"/><polyline points="665 340 665 335" stroke="#8D2323" stroke-width="1" fill="none" stroke-linecap="round"/><polyline points="665 335 695 335" stroke="#8D2323" stroke-width="1" fill="none" stroke-linecap="round"/><polyline points="695 335 695 375" stroke="#8D2323" stroke-width="1" fill="none" stroke-linecap="round"/><polyline points="660 370 665 370" stroke="#8D2323" stroke-width="1" fill="none" stroke-linecap="round"/><polyline points="660 360 665 360" stroke="#8D2323" stroke-width="1" fill="none" stroke-linecap="round"/><polyline points="660 350 665 350" stroke="#8D2323" stroke-width="1" fill="none" stroke-linecap="round"/><polyline points="660 340 665 340" stroke="#8D2323" stroke-width="1" fill="none" stroke-linecap="round"/><g c_partid="part_pin" c_etype="pinpart" c_show="show" c_elec="0" c_spicepin="1" c_origin="650,370"><path d="M 650 370 h 10" fill="none" stroke="#8D2323" stroke-width="1"/><text x="663" y="373" font-family="Verdana" font-size="7pt" fill="#8D2323" text-anchor="start">VDD</text><text x="654" y="369" font-family="Verdana" font-size="7pt" fill="#8D2323" text-anchor="end" display="none">1</text><circle cx="657" cy="370" r="3" stroke="#8D2323" fill="none" stroke-width="1" display="none"/><path d="M 660 373 L 663 370 L 660 367" fill="none" stroke="#8D2323" stroke-width="1" display="none"/></g><g c_partid="part_pin" c_etype="pinpart" c_show="show" c_elec="0" c_spicepin="2" c_origin="650,360"><path d="M 650 360 h 10" fill="none" stroke="#8D2323" stroke-width="1"/><text x="663" y="363" font-family="Verdana" font-size="7pt" fill="#8D2323" text-anchor="start">DATA</text><text x="654" y="359" font-family="Verdana" font-size="7pt" fill="#8D2323" text-anchor="end" display="none">2</text><circle cx="657" cy="360" r="3" stroke="#8D2323" fill="none" stroke-width="1" display="none"/><path d="M 660 363 L 663 360 L 660 357" fill="none" stroke="#8D2323" stroke-width="1" display="none"/></g><g c_partid="part_pin" c_etype="pinpart" c_show="show" c_elec="0" c_spicepin="3" c_origin="650,350"><path d="M 650 350 h 10" fill="none" stroke="#8D2323" stroke-width="1"/><text x="663" y="353" font-family="Verdana" font-size="7pt" fill="#8D2323" text-anchor="start">NC</text><text x="654" y="349" font-family="Verdana" font-size="7pt" fill="#8D2323" text-anchor="end" display="none">3</text><circle cx="657" cy="350" r="3" stroke="#8D2323" fill="none" stroke-width="1" display="none"/><path d="M 660 353 L 663 350 L 660 347" fill="none" stroke="#8D2323" stroke-width="1" display="none"/></g><g c_partid="part_pin" c_etype="pinpart" c_show="show" c_elec="0" c_spicepin="4" c_origin="650,340"><path d="M 650 340 h 10" fill="none" stroke="#8D2323" stroke-width="1"/><text x="663" y="343" font-family="Verdana" font-size="7pt" fill="#8D2323" text-anchor="start">GND</text><text x="654" y="339" font-family="Verdana" font-size="7pt" fill="#8D2323" text-anchor="end" display="none">4</text><circle cx="657" cy="340" r="3" stroke="#8D2323" fill="none" stroke-width="1" display="none"/><path d="M 660 343 L 663 340 L 660 337" fill="none" stroke="#8D2323" stroke-width="1" display="none"/></g></g><g c_partid="part_netLabel_VCC" c_etype="pinpart" c_origin="640,380" c_rotation="180"><text x="650.015" y="399.9990000000001" font-family="Times New Roman" font-size="9pt" fill="#000080" text-anchor="end">VCC</text><polyline points="640 390 640 380" stroke="#0000ff" stroke-width="1" fill="none"/><polyline points="645 390 635 390" stroke="#0000ff" stroke-width="1" fill="none"/></g><polyline points="650 370 640 370 640 380" stroke="#008800" stroke-width="1" fill="none" c_shapetype="line"/><g c_partid="part_netLabel_gnD" c_etype="pinpart" c_origin="680,290" c_rotation="0"><text x="669" y="277" font-family="Times New Roman" font-size="9pt" fill="#000080" text-anchor="start" display="none">GND</text><polyline points="680 300 680 290" stroke="#000000" stroke-width="1" fill="none"/><polyline points="670 300 689 300" stroke="#000000" stroke-width="1" fill="none"/><polyline points="674 302 687 302" stroke="#000000" stroke-width="1" fill="none"/><polyline points="676 304 683 304" stroke="#000000" stroke-width="1" fill="none"/><polyline points="679 306 681 306" stroke="#000000" stroke-width="1" fill="none"/></g><polyline points="680 290 640 290 640 340 650 340" stroke="#008800" stroke-width="1" fill="none" c_shapetype="line"/><polyline points="650 360 590 360 590 350 540 350" stroke="#008800" stroke-width="1" fill="none" c_shapetype="line"/></g></svg>
